/* XPM */
static char *_9cb396e318e4f90d7b36ce1f1d57b2au0nxxMQ9F5yJ81GD[] = {
/* columns rows colors chars-per-pixel */
"32 32 3 1 ",
"  c None",
". c #18215D",
"X c red",
/* pixels */
"                                ",
"                                ",
"          ..  ..                ",
"          ..  ..                ",
"        ..XX..XX..              ",
"        ..XX..XX..              ",
"        ..XX..XX..              ",
"        ..XX..XX..              ",
"        ..............          ",
"        ..............          ",
"              ..  ......        ",
"              ..  ......        ",
"          ......  ......        ",
"          ......  ......        ",
"      ..        ..........      ",
"      ..        ..........      ",
"        ..............  ..      ",
"        ..............  ..      ",
"                  ....  ..      ",
"                  ....  ..      ",
"                ..  ..          ",
"                ..  ..          ",
"              ..    ..          ",
"              ..    ..          ",
"              ..      ..        ",
"              ..      ..        ",
"              ..      ..        ",
"              ..      ..        ",
"              ....    ....      ",
"              ....    ....      ",
"                                ",
"                                "
};
