/* XPM */
static char *_efa3bcca86b424bfc36b80cd0c66ea1NkgjZCeHmPZEjsrb[] = {
/* columns rows colors chars-per-pixel */
"32 32 7 1 ",
"  c None",
". c #09103E",
"X c #E17CB7",
"o c #503197",
"O c #BF53C9",
"+ c #EFAAA5",
"@ c #F6E0C8",
/* pixels */
"                                ",
"                                ",
"                                ",
"                                ",
"    ........................    ",
"    ........................    ",
"  ..XXooOOOOOOOOOOOOOOOOooXX..  ",
"  ..XXooOOOOOOOOOOOOOOOOooXX..  ",
"  ..XXooOOOOOOOOOOOOOOOOooXX..  ",
"  ..XXooOOOOOOOOOOOOOOOOooXX..  ",
"  ..XXooOOOOOOOOOOOOOOOOooXX..  ",
"  ..XXooOOOOOOOOOOOOOOOOooXX..  ",
"  ..XXooOOOOOOOOOOOOOOOOooXX..  ",
"  ..XXooOOOOOOOOOOOOOOOOooXX..  ",
"  ..++oooooooooooooooooooo++..  ",
"  ..++oooooooooooooooooooo++..  ",
"  ..@@++XXXX@@@@@@@@XXXX++@@..  ",
"  ..@@++XXXX@@@@@@@@XXXX++@@..  ",
"  ..........@@++++++..........  ",
"  ..........@@++++++..........  ",
"  ..oooooo............oooooo..  ",
"  ..oooooo............oooooo..  ",
"  ..XXOOOOOOooooooooOOOOOOXX..  ",
"  ..XXOOOOOOooooooooOOOOOOXX..  ",
"  ..++XXXXXXXXXXXXXXXXXXXX++..  ",
"  ..++XXXXXXXXXXXXXXXXXXXX++..  ",
"    ........................    ",
"    ........................    ",
"                                ",
"                                ",
"                                ",
"                                "
};
