/* XPM */
static char *_c2cacb5eacb4e55e44134a2e61cf111RvI2uqWSxplrx9Iq[] = {
/* columns rows colors chars-per-pixel */
"32 32 28 1 ",
"  c #18215D",
". c #BF53C9",
"X c #E17CB7",
"o c #503197",
"O c #09103E",
"+ c #412A84",
"@ c #462C8B",
"# c #4A2E8F",
"$ c #462C8A",
"% c #442C89",
"& c #472C8B",
"* c #472D8C",
"= c #482D8D",
"- c #482D8C",
"; c #492E8E",
": c #312371",
"> c #211B5D",
", c #101347",
"< c #13154B",
"1 c #1B1854",
"2 c #1D1957",
"3 c #1C1956",
"4 c #191852",
"5 c #14154C",
"6 c #111448",
"7 c #16164E",
"8 c #0B1343",
"9 c #362577",
/* pixels */
"        ..XXoooo....XX          ",
"        ..XXoooo....XX          ",
"  XXoo..XXoo........XXXXoo..XX  ",
"  XXoo..XXoo........XXXXoo..XX  ",
"..XXoo..............XXXXoo....XX",
"..XXoo..............XXXXoo....XX",
"..XXooXXXXXXXXXXXXXX....oo......",
"..XXooXXXXXXXXXXXXXX....oo......",
"..XX..oooooooooooooooooooo......",
"..XX..oooooooooooooooooooo......",
"XX..oooo................ooooXXXX",
"XX..oooo................ooooXXXX",
"ooooooooOO            OOoooooooo",
"ooooooooOO            OOoooooooo",
"..XXoooo................oooo..XX",
"..XXoooo................oooo..XX",
"..XXooooOO            OOoooo..XX",
"..XXooooOO            OOoooo..XX",
"XX..ooooooooooooooooooooooooXX..",
"XX..ooooooooooooooooooooooooXX..",
"oooooooooooooooooooooo..  oooooo",
"oooooooooooooooooooooo..  oooooo",
"..XXoooooooooooooooooo    oo..XX",
"..XXoooooooooooooooooo    oo..XX",
"..XXoooooooooooooooooooooooo..XX",
"..XXoooooooooooooooooooooooo..XX",
"XX..ooooooooooooooooooooooooXX..",
"XX..ooooooooooooooooooooooooXX..",
"oo++@@##$$%%&&****==----;;++::oo",
"oo++@@##$$%%&&****==----;;++::oo",
"OO>>OO,,,,<<11223344556677OO8899",
"OO>>OO,,,,<<11223344556677OO8899"
};
