/* XPM */
static char *dd51c63cda0a4cccda10c3d323f773b52KpemDOx0ebZowbv[] = {
/* columns rows colors chars-per-pixel */
"32 32 7 1 ",
"  c #18215D",
". c #BF53C9",
"X c #E17CB7",
"o c #503197",
"O c #09103E",
"+ c #130208",
"@ c #EFAAA5",
/* pixels */
"        ..XXoooo....XX          ",
"        ..XXoooo....XX          ",
"  XXoo..XXoo........XXXXoo..XX  ",
"  XXoo..XXoo........XXXXoo..XX  ",
"..XXoo..............XXXXoo....XX",
"..XXoo..............XXXXoo....XX",
"..XXooXXXXXXXXXXXXXX....oo......",
"..XXooXXXXXXXXXXXXXX....oo......",
"..XX..OOOOOOOOOOOOOOOOOOOO......",
"..XX..OOOOOOOOOOOOOOOOOOOO......",
"XX..OO                    OOXXXX",
"XX..OO                    OOXXXX",
"ooooOO                    OOoooo",
"ooooOO                    OOoooo",
"..XXOO                    OO..XX",
"..XXOO                    OO..XX",
"..XXOO  oo  oo  oo  oo    OO..XX",
"..XXOO  oo  oo  oo  oo    OO..XX",
"XX..OOooOOooOOooOOooOOoo  OOXX..",
"XX..OOooOOooOOooOOooOOoo  OOXX..",
"ooooOOOOooOOooOOooOOooOOooOOoooo",
"ooooOOOOooOOooOOooOOooOOooOOoooo",
"..XXOOoo..oo........oo..++oo..XX",
"..XXOOoo..oo........oo..++oo..XX",
"..XXOOOOoo..XXXXXXXX..oo++OO..XX",
"..XXOOOOoo..XXXXXXXX..oo++OO..XX",
"XX..OOoo..XXXXXXXXXXXX..ooOOXX..",
"XX..OOoo..XXXXXXXXXXXX..ooOOXX..",
"ooooOO..@@@@@@@@@@@@@@@@..OOoooo",
"ooooOO..@@@@@@@@@@@@@@@@..OOoooo",
"OOooOOooooooooooooooooooooOO  oo",
"OOooOOooooooooooooooooooooOO  oo"
};
