/* XPM */
static char *_6004c98e2ce4fe2ecce4b178ec85036eoDaoUFRwhgImEe7[] = {
/* columns rows colors chars-per-pixel */
"32 32 4 1 ",
"  c #BF53C9",
". c #503197",
"X c #EFAAA5",
"o c #E17CB7",
/* pixels */
"                              ..",
"                              ..",
"  XX  ooooooooooooooooooXX  XX..",
"  XX  ooooooooooooooooooXX  XX..",
"      oooooooooooooooooo    XX..",
"      oooooooooooooooooo    XX..",
"  ooooooooooooooooooooooooooXX..",
"  ooooooooooooooooooooooooooXX..",
"  ooooooooooooooooooooooooooXX..",
"  ooooooooooooooooooooooooooXX..",
"  ooooooooooooooooooooooooooXX..",
"  ooooooooooooooooooooooooooXX..",
"  ooooooooooooooooooooooooooXX..",
"  ooooooooooooooooooooooooooXX..",
"  ooooooooooooooooooooooooooXX..",
"  ooooooooooooooooooooooooooXX..",
"  ooooooooooooooooooooooooooXX..",
"  ooooooooooooooooooooooooooXX..",
"  ooooooooooooooooooooooooooXX..",
"  ooooooooooooooooooooooooooXX..",
"  ooooooooooooooooooooooooooXX..",
"  ooooooooooooooooooooooooooXX..",
"  ooooooooooooooooooooooooooXX..",
"  ooooooooooooooooooooooooooXX..",
"  XX  ooooooooooooooooooXX  XX..",
"  XX  ooooooooooooooooooXX  XX..",
"      oooooooooooooooooo    XX..",
"      oooooooooooooooooo    XX..",
"XXXXXXXXXXXXXXXXXXXXXXXXXXXXXX..",
"XXXXXXXXXXXXXXXXXXXXXXXXXXXXXX..",
"................................",
"................................"
};
