/* XPM */
static char *_bd1e480a57a4861e03431cf8b84111ax1kjZcYziXVCJAU2[] = {
/* columns rows colors chars-per-pixel */
"32 32 3 1 ",
"  c None",
". c #18215D",
"X c #F6E0C8",
/* pixels */
"                                ",
"                                ",
"          ..  ..                ",
"          ..  ..                ",
"        ..XX..XX..              ",
"        ..XX..XX..              ",
"        ..XX..XX..              ",
"        ..XX..XX..              ",
"        ..............          ",
"        ..............          ",
"          ......  ......        ",
"          ......  ......        ",
"                  ......        ",
"                  ......        ",
"                ..........      ",
"                ..........      ",
"            ..........  ..      ",
"            ..........  ..      ",
"          ..      ....  ..      ",
"          ..      ....  ..      ",
"          ..    ..  ..    ..    ",
"          ..    ..  ..    ..    ",
"              ..    ..          ",
"              ..    ..          ",
"              ..      ..        ",
"              ..      ..        ",
"              ..      ..        ",
"              ..      ..        ",
"              ..      ..        ",
"              ..      ..        ",
"                                ",
"                                "
};
