/* XPM */
static char *d9819c5f53df4e81930ee66f1e73d683Ex8O3p2uv7mSJPqC[] = {
/* columns rows colors chars-per-pixel */
"32 32 6 1 ",
"  c None",
". c #18215D",
"X c #EFAAA5",
"o c #BF53C9",
"O c #503197",
"+ c #F6E0C8",
/* pixels */
"                ....            ",
"                ....            ",
"            ....XXXX..          ",
"            ....XXXX..          ",
"        ....XXXXXXXXXX..        ",
"        ....XXXXXXXXXX..        ",
"    ....XXXXXXXXXXXXoooo..      ",
"    ....XXXXXXXXXXXXoooo..      ",
"  ..XXXXXXXXXXXXooooXXXXXX..    ",
"  ..XXXXXXXXXXXXooooXXXXXX..    ",
"  ..ooXXXXooooooXXXX....OO..    ",
"  ..ooXXXXooooooXXXX....OO..    ",
"  ..ooooooXXXXXX........OO..    ",
"  ..ooooooXXXXXX........OO..    ",
"  ..ooooOOoo............OO..    ",
"  ..ooooOOoo............OO..    ",
"  ..oooooooo............OO..    ",
"  ..oooooooo............OO..    ",
"  ..ooooOOoo....++......OO..    ",
"  ..ooooOOoo....++......OO..    ",
"  ..ooooOOoo..++++......OO..    ",
"  ..ooooOOoo..++++......OO..    ",
"  ..ooooOOoo........OOOOOO..    ",
"  ..ooooOOoo........OOOOOO..    ",
"    ..ooOOoo....OOOOOOOO..      ",
"    ..ooOOoo....OOOOOOOO..      ",
"      ..OOooOOOOOOOO....        ",
"      ..OOooOOOOOOOO....        ",
"        ..ooOOOO....            ",
"        ..ooOOOO....            ",
"          ......                ",
"          ......                "
};
