/* XPM */
static char *_b5dfb170cae4a76eecb6773f9e5a31d7BscmUJQsLlR3u3P[] = {
/* columns rows colors chars-per-pixel */
"32 32 6 1 ",
"  c None",
". c #18215D",
"X c #EFAAA5",
"o c #BF53C9",
"O c #503197",
"+ c #F6E0C8",
/* pixels */
"                ....            ",
"                ....            ",
"            ....XXXX..          ",
"            ....XXXX..          ",
"        ....XXXXXXXXXX..        ",
"        ....XXXXXXXXXX..        ",
"    ....XXXXXXXXXXXXoooo..      ",
"    ....XXXXXXXXXXXXoooo..      ",
"  ..XXXXXXXXXXXXooooXXXXXX..    ",
"  ..XXXXXXXXXXXXooooXXXXXX..    ",
"  ..ooXXXXooooooXXXX....OO..    ",
"  ..ooXXXXooooooXXXX....OO..    ",
"  ..ooooooXXXXXX.....+..OO..    ",
"  ..ooooooXXXXXX....+.+.OO..    ",
"  ..ooooOOoo.......+..+.OO..    ",
"  ..ooooOOoo....+.......OO..    ",
"  ..oooooooo...+.+......OO..    ",
"  ..oooooooo..+..+...+..OO..    ",
"  ..ooooOOoo.........+..OO..    ",
"  ..ooooOOoo........+...OO..    ",
"  ..ooooOOoo.......+....OO..    ",
"  ..ooooOOoo............OO..    ",
"  ..ooooOOoo........OOOOOO..    ",
"  ..ooooOOoo........OOOOOO..    ",
"    ..ooOOoo....OOOOOOOO..      ",
"    ..ooOOoo....OOOOOOOO..      ",
"      ..OOooOOOOOOOO....        ",
"      ..OOooOOOOOOOO....        ",
"        ..ooOOOO....            ",
"        ..ooOOOO....            ",
"          ......                ",
"          ......                "
};
