/* XPM */
static char *_d5ead119b1e46c7dcac138432912103K4uWfR7hwQhsz0aY[] = {
/* columns rows colors chars-per-pixel */
"32 32 3 1 ",
"  c None",
". c #18215D",
"X c #F6E0C8",
/* pixels */
"                                ",
"                                ",
"                                ",
"                                ",
"        ..  ..                  ",
"        ..  ..                  ",
"      ..XX..XX......            ",
"      ..XX..XX......            ",
"      ..XX..XX........          ",
"      ..XX..XX........          ",
"      ..........  ......        ",
"      ..........  ......        ",
"        ......    ........      ",
"        ......    ........      ",
"                ......  ....    ",
"                ......  ....    ",
"          ......  ....    ..    ",
"          ......  ....    ..    ",
"        ..      ......    ..    ",
"        ..      ......    ..    ",
"        ..    ..    ..    ....  ",
"        ..    ..    ..    ....  ",
"            ..      ..      ..  ",
"            ..      ..      ..  ",
"            ..        ..        ",
"            ..        ..        ",
"            ..        ..        ",
"            ..        ..        ",
"            ..        ..        ",
"            ..        ..        ",
"                                ",
"                                "
};
