/* XPM */
static char *eb10eb7624b54fbb8ea30510c05ac9abvlV3FJI53gf1b5UH[] = {
/* columns rows colors chars-per-pixel */
"32 32 3 1 ",
"  c None",
". c #18215D",
"X c #F6E0C8",
/* pixels */
"              ..  ..            ",
"              ..  ..            ",
"            ..XX..XX..          ",
"            ..XX..XX..          ",
"            ..XX..XX..          ",
"            ..XX..XX..          ",
"            ..........          ",
"            ..........          ",
"              ........          ",
"              ........          ",
"                    ....        ",
"                    ....        ",
"                  ......        ",
"                  ......        ",
"                ..........      ",
"                ..........      ",
"              ........    ..    ",
"              ........    ..    ",
"            ..    ....    ..    ",
"            ..    ....    ..    ",
"            ..  ..  ..  ..      ",
"            ..  ..  ..  ..      ",
"              ..    ..          ",
"              ..    ..          ",
"              ..    ..          ",
"              ..    ..          ",
"              ..  ..            ",
"              ..  ..            ",
"              ..    ....        ",
"              ..    ....        ",
"                                ",
"                                "
};
