/* XPM */
static char *_4c590b60bf84aee8749e6f1b4f3d04auUlplVxJKwFHHRPx[] = {
/* columns rows colors chars-per-pixel */
"32 32 5 1 ",
"  c #E17CB7",
". c #18215D",
"X c #EFAAA5",
"o c #503197",
"O c #BF53C9",
/* pixels */
"                              ..",
"                              ..",
"  XXooOOOOOOOOOOOOOOOOOOOOXXoo..",
"  XXooOOOOOOOOOOOOOOOOOOOOXXoo..",
"  ooooOOOOOOOOOOOOOOOOOOOOoooo..",
"  ooooOOOOOOOOOOOOOOOOOOOOoooo..",
"  OOOOOOOOOOOOOOOOOOOOOOOOOOOO..",
"  OOOOOOOOOOOOOOOOOOOOOOOOOOOO..",
"  OOOOOOOOOOOOOOOOOOOOOOOOOOOO..",
"  OOOOOOOOOOOOOOOOOOOOOOOOOOOO..",
"  XXooOOOOOOOOOOOOOOOOOOOOXXoo..",
"  XXooOOOOOOOOOOOOOOOOOOOOXXoo..",
"  ooooOOOOOOOOOOOOOOOOOOOOoooo..",
"  ooooOOOOOOOOOOOOOOOOOOOOoooo..",
"................................",
"................................",
"  XXooOOOOOOOOOOOOOOOOOOOOXXoo..",
"  XXooOOOOOOOOOOOOOOOOOOOOXXoo..",
"  ooooOOOOOOOOOOOOOOOOOOOOoooo..",
"  ooooOOOOOOOOOOOOOOOOOOOOoooo..",
"  OOOOOOOOOOOOOOOOOOOOOOOOOOOO..",
"  OOOOOOOOOOOOOOOOOOOOOOOOOOOO..",
"  OOOOOOOOOOOOOOOOOOOOOOOOOOOO..",
"  OOOOOOOOOOOOOOOOOOOOOOOOOOOO..",
"  OOOOOOOOOOOOOOOOOOOOOOOOOOOO..",
"  OOOOOOOOOOOOOOOOOOOOOOOOOOOO..",
"  XXooOOOOOOOOOOOOOOOOOOOOXXoo..",
"  XXooOOOOOOOOOOOOOOOOOOOOXXoo..",
"  ooooOOOOOOOOOOOOOOOOOOOOoooo..",
"  ooooOOOOOOOOOOOOOOOOOOOOoooo..",
"................................",
"................................"
};
